<?xml version="1.0" standalone="no"?>
<!DOCTYPE svg PUBLIC "-//W3C//DTD SVG 20010904//EN"
 "http://www.w3.org/TR/2001/REC-SVG-20010904/DTD/svg10.dtd">
<svg version="1.0" xmlns="http://www.w3.org/2000/svg"
 width="794.000000pt" height="635.000000pt" viewBox="0 0 794.000000 635.000000"
 preserveAspectRatio="xMidYMid meet">

<g transform="translate(0.000000,635.000000) scale(0.100000,-0.100000)"
fill="#000000" stroke="none">
<path d="M4803 6037 c-52 -56 -85 -113 -123 -214 -37 -96 -102 -179 -120 -153
-15 20 -6 110 15 150 11 21 13 36 7 42 -16 16 -29 1 -47 -52 -16 -47 -54 -91
-79 -90 -6 1 -21 16 -33 35 l-22 34 34 21 c50 31 135 157 118 174 -46 45 -168
-113 -208 -269 -22 -88 -20 -148 8 -181 45 -52 83 -11 94 102 5 59 8 65 39 84
l34 19 0 -22 c0 -33 28 -67 55 -67 15 0 34 14 54 38 l30 37 1 -28 c0 -29 39
-77 61 -77 7 0 37 25 66 55 58 59 63 63 63 40 0 -20 32 -35 74 -35 29 0 44 8
75 40 31 32 40 37 45 24 12 -31 6 -47 -34 -90 -50 -55 -60 -89 -32 -116 48
-48 111 22 112 124 0 46 0 47 61 85 74 45 61 57 -16 14 -30 -17 -57 -31 -59
-31 -2 0 -7 13 -11 28 -4 20 2 41 20 75 28 48 26 67 -4 67 -30 0 -51 -33 -51
-80 0 -37 -6 -48 -44 -86 -51 -52 -90 -59 -108 -20 -15 35 -6 51 41 65 47 13
71 52 50 77 -28 34 -86 2 -124 -68 -32 -60 -65 -102 -101 -131 -33 -25 -54 -8
-53 42 2 59 12 78 57 108 77 52 159 185 150 244 -2 17 -10 25 -29 27 -19 2
-35 -7 -66 -41z m63 -44 c-20 -57 -73 -132 -115 -162 -39 -28 -39 -17 1 66 34
69 119 174 126 154 2 -6 -4 -32 -12 -58z m-350 -71 c-20 -38 -84 -107 -92 -99
-8 8 15 45 64 106 38 47 54 43 28 -7z m556 -74 c-7 -7 -12 -8 -12 -2 0 14 12
26 19 19 2 -3 -1 -11 -7 -17z m-119 -23 c-3 -9 -18 -22 -34 -31 -25 -13 -29
-13 -29 0 0 16 37 46 57 46 7 0 10 -7 6 -15z m-538 -86 c4 -11 4 -23 1 -26
-10 -10 -35 18 -29 33 8 20 21 17 28 -7z m-6 -36 c22 -6 23 -10 18 -58 -3 -29
-13 -68 -22 -86 -17 -31 -18 -32 -31 -14 -15 20 -18 67 -8 128 7 40 7 40 43
30z m641 -103 c-16 -38 -46 -65 -55 -50 -11 18 3 56 32 91 27 32 28 32 31 10
2 -13 -2 -36 -8 -51z"/>
<path d="M3325 6018 c-32 -18 -66 -51 -81 -81 -24 -44 -5 -51 25 -9 28 38 71
72 91 72 21 0 9 -59 -26 -130 -22 -44 -63 -100 -103 -143 l-66 -70 55 6 c30 4
78 7 105 8 43 0 47 2 25 10 -13 6 -49 7 -80 3 l-55 -7 72 76 c74 76 123 159
123 208 0 24 -36 69 -56 69 -5 0 -18 -6 -29 -12z"/>
<path d="M4018 5973 c-13 -13 -22 -14 -49 -4 -44 15 -101 14 -125 -4 -17 -13
-15 -13 18 -4 34 9 102 0 130 -17 3 -2 -4 -30 -16 -62 -13 -31 -30 -78 -40
-104 -18 -49 -80 -138 -96 -138 -18 0 -10 67 15 134 14 37 25 71 25 76 0 24
-20 6 -53 -49 -20 -32 -43 -64 -52 -71 -13 -11 -15 -9 -15 12 0 13 9 42 20 63
20 39 20 72 0 60 -6 -4 -25 -36 -42 -72 -31 -67 -72 -103 -116 -103 -31 0 -45
38 -30 82 13 39 46 78 66 78 11 0 9 -8 -8 -37 l-21 -36 23 15 c15 10 23 25 23
44 0 24 -5 30 -27 32 -36 4 -73 -32 -87 -86 -25 -93 54 -138 135 -76 31 23 32
23 37 4 6 -22 36 -27 55 -8 9 9 12 4 12 -23 0 -65 36 -76 87 -27 22 21 33 27
33 17 0 -28 25 -52 47 -45 18 6 113 141 113 160 0 19 -19 -1 -49 -51 -57 -97
-81 -116 -81 -64 0 33 32 142 62 212 l19 47 48 -16 c52 -16 90 -12 115 14 24
23 19 40 -5 18 -36 -32 -157 -15 -143 20 8 21 -11 27 -28 9z"/>
<path d="M4576 5934 c-7 -19 1 -34 19 -34 15 0 28 27 19 41 -9 14 -31 10 -38
-7z"/>
<path d="M3110 5469 c-133 -111 -140 -117 -140 -143 0 -20 -11 -30 -55 -50
-74 -36 -97 -83 -57 -119 43 -40 112 -5 112 56 1 36 20 64 153 215 48 55 87
102 87 106 0 14 -19 1 -100 -65z m-60 -104 c0 -8 -9 -15 -20 -15 -11 0 -20 7
-20 15 0 8 9 15 20 15 11 0 20 -7 20 -15z m-105 -125 c15 -17 16 -24 7 -45
-16 -34 -56 -52 -77 -35 -23 19 -18 56 11 79 33 26 36 26 59 1z"/>
<path d="M3302 5489 c-48 -10 -54 -23 -7 -14 22 4 42 9 44 11 9 9 -6 10 -37 3z"/>
<path d="M3400 5490 c0 -5 19 -10 43 -9 32 0 37 2 22 9 -28 12 -65 12 -65 0z"/>
<path d="M3540 5471 c0 -4 16 -12 35 -18 20 -6 35 -7 35 -2 0 5 -1 9 -3 9 -1
0 -17 4 -35 9 -17 5 -32 6 -32 2z"/>
<path d="M3670 5421 c0 -10 61 -34 68 -27 4 4 -51 36 -63 36 -3 0 -5 -4 -5 -9z"/>
<path d="M2777 5402 c-35 -39 -9 -102 42 -102 30 0 136 50 149 70 8 13 3 16
-29 17 -22 1 -49 9 -61 17 -30 22 -81 20 -101 -2z m100 -20 c10 -13 10 -20 -1
-36 -32 -49 -119 -23 -99 30 13 35 75 38 100 6z"/>
<path d="M3184 5403 c-52 -3 -65 -8 -89 -33 l-27 -28 101 25 c56 14 101 29
101 34 0 5 -6 8 -12 7 -7 -1 -40 -3 -74 -5z"/>
<path d="M5020 5386 c0 -8 71 -12 76 -4 3 4 -13 8 -35 8 -23 0 -41 -2 -41 -4z"/>
<path d="M4915 5364 l-40 -14 39 5 c37 4 54 11 45 19 -2 2 -22 -3 -44 -10z"/>
<path d="M3815 5356 c35 -18 64 -21 49 -6 -5 5 -25 12 -44 15 l-35 5 30 -14z"/>
<path d="M4773 5333 c-13 -2 -23 -9 -23 -14 0 -10 44 -2 70 12 12 7 11 8 -5 7
-11 0 -30 -3 -42 -5z"/>
<path d="M5755 5330 c-61 -10 -97 -23 -118 -45 -15 -14 -17 -48 -17 -285 l0
-268 -97 -17 c-198 -34 -422 -128 -564 -234 -84 -64 -203 -189 -257 -271 -24
-36 -63 -105 -87 -155 -39 -81 -48 -92 -89 -114 -26 -13 -62 -41 -81 -63 l-35
-38 0 -146 c0 -171 5 -186 84 -238 50 -33 55 -40 65 -89 6 -28 61 -317 122
-642 234 -1250 257 -1365 270 -1381 20 -24 119 -71 190 -89 359 -94 1029 -96
1394 -4 106 27 193 74 211 113 7 17 56 263 109 546 53 283 107 576 121 650 14
74 56 297 92 495 l68 359 49 34 c86 59 90 67 93 226 2 92 0 148 -8 167 -15 36
-71 86 -123 109 -35 16 -44 27 -73 95 -155 356 -514 613 -945 676 l-79 11 0
274 0 274 -24 15 c-51 33 -180 50 -271 35z m212 -74 c16 -16 -18 -21 -132 -21
-115 0 -148 5 -132 22 19 18 246 18 264 -1z m-135 -87 c35 0 86 2 111 6 46 7
47 7 47 -19 0 -14 -3 -25 -7 -24 -12 3 -83 -35 -79 -41 2 -3 -6 -7 -17 -8 -12
-1 -64 -5 -114 -9 l-93 -7 0 58 0 57 43 -6 c24 -4 73 -7 109 -7z m158 -325 c0
-101 -1 -103 -28 -122 -40 -29 -133 -53 -210 -55 l-67 -2 0 104 0 105 55 3
c95 6 236 45 225 62 -2 4 2 8 10 8 12 0 15 -20 15 -103z m-423 -214 c-16 -42
14 -78 89 -110 52 -21 74 -24 189 -25 120 0 134 2 187 27 70 33 96 68 81 109
-14 35 -12 35 93 13 403 -83 717 -346 843 -706 35 -102 44 -89 -91 -136 -241
-85 -554 -129 -993 -139 -363 -8 -707 14 -966 63 -185 34 -389 104 -389 132 1
34 69 194 116 274 56 96 225 272 315 331 124 80 291 149 440 182 98 21 99 20
86 -15z m413 -50 c0 -5 -5 -10 -11 -10 -5 0 -7 5 -4 10 3 6 8 10 11 10 2 0 4
-4 4 -10z m-187 -17 c-7 -2 -21 -2 -30 0 -10 3 -4 5 12 5 17 0 24 -2 18 -5z
m-1248 -712 c-6 -26 -2 -33 32 -55 109 -72 363 -135 703 -173 221 -25 900 -25
1110 0 331 39 546 90 697 164 52 25 55 28 51 60 -5 42 5 42 48 -1 41 -41 38
-56 -20 -95 -114 -77 -352 -135 -729 -178 -220 -25 -963 -25 -1187 0 -408 46
-713 131 -768 215 -15 24 -15 26 21 58 45 42 50 42 42 5z m45 -288 c0 -97 -5
-100 -72 -50 l-43 33 -3 82 -3 82 60 -33 61 -32 0 -82z m2630 68 c0 -79 -13
-102 -79 -139 l-41 -23 0 88 0 88 48 26 c70 40 72 39 72 -40z m-2447 -41 l57
-11 0 -91 0 -90 -32 7 c-18 4 -61 16 -95 27 l-63 19 0 89 0 89 38 -13 c21 -8
64 -19 95 -26z m2277 -50 l0 -89 -62 -19 c-35 -11 -78 -23 -95 -27 l-33 -7 0
90 0 89 57 12 c31 7 72 19 92 26 20 8 37 14 39 14 1 1 2 -39 2 -89z m-2055 7
l70 -12 3 -88 3 -87 -28 0 c-15 1 -57 6 -93 13 l-65 12 -3 88 c-3 100 -11 95
113 74z m1813 -74 l-3 -88 -92 -16 c-51 -9 -94 -15 -95 -13 -2 1 -1 42 2 90
l5 88 65 12 c36 6 78 12 93 13 l28 1 -3 -87z m-1558 39 l65 -7 3 -89 3 -89
-86 7 c-48 4 -93 10 -101 13 -11 4 -14 26 -14 93 l0 89 33 -5 c17 -3 61 -8 97
-12z m1320 -76 c0 -98 8 -91 -118 -102 l-83 -7 3 89 3 89 50 6 c28 3 71 7 98
7 l47 2 0 -84z m-1077 58 l77 -7 0 -90 0 -90 -97 7 c-54 4 -101 10 -105 12 -4
3 -8 43 -8 90 l0 84 28 0 c16 0 63 -3 105 -6z m827 -83 l0 -88 -77 -7 c-135
-11 -123 -19 -123 84 l0 89 58 4 c31 2 76 4 100 5 l42 2 0 -89z m-567 72 l67
-6 0 -83 c0 -48 -4 -86 -11 -89 -6 -4 -51 -4 -100 0 l-89 7 0 89 0 89 33 0
c17 0 62 -3 100 -7z m317 -82 l0 -88 -67 -6 c-38 -4 -83 -7 -100 -7 l-33 0 0
89 0 90 53 4 c28 2 73 4 100 5 l47 2 0 -89z m-1370 -31 c397 -125 1245 -163
1870 -84 139 17 341 57 429 84 36 11 66 18 67 17 5 -4 -351 -1885 -357 -1892
-4 -3 -22 2 -42 11 l-35 17 25 38 c30 46 40 113 24 162 -14 42 -79 104 -118
113 -47 10 -53 13 -53 28 0 8 15 20 34 26 148 49 171 249 38 327 -127 75 -279
-19 -271 -168 3 -51 3 -51 -35 -64 -52 -18 -94 -60 -113 -116 -14 -40 -20 -46
-34 -38 -24 12 -91 11 -126 -2 -34 -12 -80 -55 -98 -89 -12 -22 -18 -25 -63
-22 l-51 4 -7 41 c-13 82 -125 159 -205 142 -18 -4 -29 -2 -29 4 0 19 -64 84
-97 97 -44 19 -100 17 -148 -5 -47 -22 -69 -44 -89 -93 -12 -27 -20 -35 -34
-31 -30 7 -98 -15 -132 -43 -83 -70 -88 -181 -14 -264 l36 -39 -46 -23 c-25
-12 -47 -20 -49 -17 -2 2 -33 164 -70 359 -36 195 -116 619 -176 941 -61 323
-111 590 -111 593 0 9 10 7 80 -14z m1876 -1240 c0 -12 -4 -16 -9 -11 -5 5 -6
14 -3 20 10 15 12 14 12 -9z m-182 -126 c3 -8 2 -12 -4 -9 -6 3 -10 10 -10 16
0 14 7 11 14 -7z m76 -43 c0 -5 8 -12 18 -14 14 -4 14 -5 1 -6 -9 0 -22 6 -29
14 -9 10 -9 15 -1 15 6 0 11 -4 11 -9z m-1000 -36 c13 -14 21 -25 18 -25 -2 0
-15 11 -28 25 -13 14 -21 25 -18 25 2 0 15 -11 28 -25z m-174 -87 l29 -33 -32
29 c-18 17 -33 31 -33 33 0 8 8 1 36 -29z m-95 -36 c-7 -2 -18 1 -23 6 -8 8
-4 9 13 5 13 -4 18 -8 10 -11z m500 1 c13 -16 12 -17 -3 -4 -17 13 -22 21 -14
21 2 0 10 -8 17 -17z m-446 -23 c10 -11 16 -20 13 -20 -3 0 -13 9 -23 20 -10
11 -16 20 -13 20 3 0 13 -9 23 -20z m1272 4 c-3 -3 -12 -4 -19 -1 -8 3 -5 6 6
6 11 1 17 -2 13 -5z m-497 -14 c0 -5 -8 -10 -17 -10 -15 0 -16 2 -3 10 19 12
20 12 20 0z m-303 -52 c-3 -7 -5 -2 -5 12 0 14 2 19 5 13 2 -7 2 -19 0 -25z
m356 -53 c-3 -9 -8 -14 -10 -11 -3 3 -2 9 2 15 9 16 15 13 8 -4z m112 -15 c3
-6 -4 -10 -17 -10 -18 0 -20 2 -8 10 19 12 18 12 25 0z m-290 -10 c3 -6 -1 -7
-9 -4 -18 7 -21 14 -7 14 6 0 13 -4 16 -10z m146 -23 c-10 -9 -11 -8 -5 6 3
10 9 15 12 12 3 -3 0 -11 -7 -18z m-951 -19 c0 -12 -6 -9 -26 13 -19 22 -19
22 4 8 12 -8 22 -17 22 -21z m401 15 c13 -16 12 -17 -3 -4 -10 7 -18 15 -18
17 0 8 8 3 21 -13z m87 -8 c-3 -3 -9 2 -12 12 -6 14 -5 15 5 6 7 -7 10 -15 7
-18z m1013 -18 l-24 -22 19 27 c10 14 21 24 23 22 3 -3 -6 -15 -18 -27z m-570
-40 c-13 -13 -15 1 -4 30 7 17 8 17 11 -1 2 -10 -1 -23 -7 -29z m-344 -115
c37 -49 70 -66 136 -69 78 -5 131 22 165 84 26 48 53 49 77 2 41 -79 159 -113
242 -70 45 22 78 61 88 104 4 15 8 27 10 27 1 0 20 -7 41 -16 21 -9 53 -14 73
-11 74 9 200 -63 172 -97 -50 -59 -293 -113 -621 -137 -410 -29 -941 34 -1056
126 l-29 23 20 22 c23 26 64 45 153 71 l63 18 10 -26 c29 -76 96 -123 175
-123 86 0 154 52 175 135 9 37 16 44 38 47 23 3 27 -2 37 -40 6 -24 20 -55 31
-70z m420 86 c-3 -7 -5 -2 -5 12 0 14 2 19 5 13 2 -7 2 -19 0 -25z m-347 -58
c0 -5 -2 -10 -4 -10 -3 0 -8 5 -11 10 -3 6 -1 10 4 10 6 0 11 -4 11 -10z"/>
<path d="M5105 2945 c-46 -25 -66 -46 -86 -90 -50 -108 12 -251 116 -271 144
-27 250 130 186 272 -38 84 -144 128 -216 89z m142 -47 c33 -31 32 -90 -3
-117 -15 -12 -35 -21 -46 -21 -30 0 -68 45 -68 80 0 37 39 80 71 80 13 0 33
-10 46 -22z m-126 -168 c25 -14 25 -56 -1 -70 -37 -20 -69 23 -44 58 17 25 19
26 45 12z"/>
<path d="M6433 2935 c-112 -68 -111 -257 2 -331 96 -63 234 12 251 136 22 159
-125 272 -253 195z m166 -51 c28 -36 27 -79 -4 -109 -30 -30 -54 -31 -89 -4
-19 15 -26 29 -26 57 0 73 77 110 119 56z m-125 -170 c21 -21 20 -37 -4 -59
-19 -17 -21 -17 -40 0 -11 10 -20 24 -20 31 0 14 27 44 40 44 5 0 16 -7 24
-16z"/>
<path d="M5715 2731 c-9 -30 20 -88 54 -105 58 -31 166 -12 190 32 6 12 11 37
11 56 0 29 -4 36 -20 36 -15 0 -20 -7 -20 -25 0 -39 -33 -65 -83 -65 -52 0
-75 15 -85 55 -10 35 -38 45 -47 16z"/>
<path d="M5105 2345 c-109 -39 -155 -173 -91 -268 64 -95 191 -111 275 -34 27
25 60 92 61 122 0 77 -63 164 -135 184 -50 14 -61 13 -110 -4z m150 -85 c10
-11 16 -20 13 -20 -3 0 -13 9 -23 20 -10 11 -16 20 -13 20 3 0 13 -9 23 -20z
m-208 -82 c-3 -7 -5 -2 -5 12 0 14 2 19 5 13 2 -7 2 -19 0 -25z m240 -25 c-3
-10 -5 -4 -5 12 0 17 2 24 5 18 2 -7 2 -21 0 -30z m-182 -73 c12 -19 -12 -10
-31 11 -19 22 -19 22 3 10 12 -6 25 -16 28 -21z m165 26 c0 -2 -8 -10 -17 -17
-16 -13 -17 -12 -4 4 13 16 21 21 21 13z m-109 -54 c-13 -2 -27 0 -32 5 -6 6
3 7 23 4 28 -4 29 -6 9 -9z"/>
<path d="M5815 2243 c-11 -2 -30 -6 -42 -8 -32 -7 -81 -53 -103 -96 -54 -105
16 -236 136 -255 73 -11 156 31 190 98 20 39 20 118 -1 163 -31 63 -118 111
-180 98z m142 -175 c-3 -8 -6 -5 -6 6 -1 11 2 17 5 13 3 -3 4 -12 1 -19z
m-233 -33 c5 -22 4 -26 -4 -15 -5 8 -10 24 -10 34 0 26 6 18 14 -19z m81 -85
c3 -6 -1 -7 -9 -4 -18 7 -21 14 -7 14 6 0 13 -4 16 -10z"/>
<path d="M3945 5315 c34 -16 74 -20 60 -6 -6 5 -28 12 -50 15 l-40 6 30 -15z"/>
<path d="M4630 5300 c-28 -9 -19 -13 20 -10 30 2 53 20 25 19 -11 -1 -31 -5
-45 -9z"/>
<path d="M4064 5291 c7 -11 76 -20 76 -10 0 3 -14 9 -31 13 -42 8 -51 8 -45
-3z"/>
<path d="M4495 5280 c-28 -7 -28 -8 12 -9 23 0 45 4 48 9 7 11 -16 11 -60 0z"/>
<path d="M4210 5270 c20 -13 70 -13 70 0 0 6 -19 10 -42 10 -32 0 -39 -3 -28
-10z"/>
<path d="M4355 5270 c-15 -7 -10 -9 23 -9 23 -1 42 4 42 9 0 12 -37 12 -65 0z"/>
<path d="M2033 5035 c-20 -8 -35 -23 -39 -39 -3 -14 -25 -157 -48 -318 l-42
-293 -104 -7 c-629 -42 -994 -120 -1124 -242 l-46 -42 0 -162 0 -161 30 -34
c16 -19 50 -45 74 -58 31 -16 47 -32 50 -49 3 -14 69 -403 146 -865 231 -1379
229 -1368 249 -1395 88 -122 649 -197 1181 -159 341 24 577 84 631 160 13 17
69 330 206 1152 l188 1127 58 36 c90 56 97 72 97 243 0 126 -2 148 -20 176
-72 117 -439 218 -920 255 -240 18 -250 20 -250 37 0 8 16 123 35 254 45 310
45 312 -2 343 -21 14 -65 32 -98 41 -74 19 -209 19 -252 0z m251 -65 c36 -12
66 -25 66 -29 0 -25 -83 -27 -182 -6 -129 27 -141 55 -23 55 45 0 98 -8 139
-20z m-164 -86 c34 -11 88 -18 142 -18 52 -1 88 -5 87 -11 -2 -19 -17 -60 -18
-48 -1 7 -16 4 -43 -9 -47 -23 -162 -35 -222 -24 -31 6 -36 11 -36 34 0 52 13
103 24 98 6 -3 36 -13 66 -22z m220 -98 c0 -3 -4 -8 -10 -11 -5 -3 -10 -1 -10
4 0 6 5 11 10 11 6 0 10 -2 10 -4z m-313 -68 c-3 -7 -5 -2 -5 12 0 14 2 19 5
13 2 -7 2 -19 0 -25z m-3 -52 c-3 -15 -8 -25 -11 -23 -2 3 -1 17 3 31 3 15 8
25 11 23 2 -3 1 -17 -3 -31z m296 -32 c0 -54 -40 -245 -50 -239 -4 3 -21 -2
-37 -10 -46 -23 -130 -36 -188 -29 -82 10 -81 7 -64 126 l14 103 71 -3 c77 -4
188 14 179 29 -3 5 0 6 7 4 8 -3 22 1 33 9 21 16 35 20 35 10z m-430 -331 c0
-10 -3 -34 -6 -54 l-6 -36 -82 -7 c-226 -18 -396 -84 -396 -153 0 -57 99 -107
273 -137 153 -27 392 -38 569 -26 311 20 465 61 514 135 48 73 -68 136 -317
172 -112 16 -120 19 -115 38 3 11 6 33 6 49 l0 29 143 -6 c436 -21 869 -115
972 -211 19 -19 35 -38 35 -43 0 -24 -68 -75 -138 -104 -135 -56 -340 -99
-647 -136 -125 -15 -228 -18 -615 -18 -415 1 -484 3 -640 22 -414 51 -705 137
-742 219 -10 21 -8 28 13 50 94 101 515 196 984 223 83 4 160 9 173 10 15 1
22 -5 22 -16z m367 -65 c-3 -7 -5 -2 -5 12 0 14 2 19 5 13 2 -7 2 -19 0 -25z
m-3 -65 c-11 -79 -12 -82 -52 -90 -54 -12 -234 -8 -258 5 -19 10 -20 17 -14
52 4 23 13 47 20 53 9 9 11 8 8 -3 -5 -23 215 -20 257 3 42 23 44 22 39 -20z
m-390 -67 c-6 -39 -4 -46 17 -59 52 -34 219 -47 321 -26 77 16 96 31 103 84 4
25 12 45 19 45 39 0 223 -34 283 -51 124 -37 119 -61 -21 -99 -140 -39 -307
-52 -566 -47 -245 5 -357 19 -477 58 -73 24 -84 36 -55 59 33 27 247 75 354
79 27 1 27 0 22 -43z m-1054 -303 c0 -52 -4 -83 -11 -83 -17 0 -52 21 -81 48
-26 24 -28 32 -28 104 l0 78 60 -32 60 -31 0 -84z m2670 73 c0 -85 -16 -113
-81 -146 l-39 -20 0 90 0 90 33 14 c17 8 41 21 52 30 11 8 23 16 28 16 4 0 7
-33 7 -74z m-2507 -38 l77 -21 0 -89 c0 -102 6 -99 -110 -64 l-75 22 -3 93
c-3 86 -1 93 15 86 10 -3 53 -16 96 -27z m2330 -149 c-10 -9 -153 -49 -177
-49 -15 0 -16 10 -14 87 l3 87 95 26 95 26 3 -85 c2 -46 -1 -88 -5 -92z
m-2078 97 l70 -12 3 -93 3 -93 -28 6 c-15 2 -61 10 -100 17 l-73 12 0 89 0 88
28 -1 c15 0 59 -6 97 -13z m1840 -76 l0 -85 -50 -11 c-27 -6 -71 -14 -97 -17
l-48 -7 0 90 c0 50 3 90 8 91 4 1 36 7 72 14 36 7 76 12 90 11 25 -1 25 -2 25
-86z m-1517 -59 l3 -93 -33 5 c-18 3 -63 9 -100 13 l-68 6 0 92 0 92 98 -11
97 -10 3 -94z m1270 22 l-3 -87 -40 -7 c-22 -3 -66 -9 -98 -12 l-58 -6 3 92 3
92 50 6 c28 3 72 7 98 7 l48 2 -3 -87z m-1050 57 l32 0 0 -90 0 -90 -77 0
c-127 0 -123 -3 -123 103 l0 90 68 -6 c37 -4 82 -7 100 -7z m802 -79 l0 -88
-31 -7 c-17 -3 -65 -6 -105 -6 l-74 0 0 90 0 89 68 4 c37 2 84 4 105 5 l37 2
0 -89z m-564 69 l54 0 0 -90 0 -91 -102 3 -103 3 -3 79 c-4 107 -2 110 55 102
25 -3 70 -6 99 -6z m304 -85 l0 -95 -100 0 -100 0 0 90 0 89 78 4 c42 1 87 4
100 5 21 2 22 -1 22 -93z m-1312 -49 c125 -32 308 -62 497 -82 204 -21 762
-30 980 -15 316 22 611 65 756 111 75 23 93 25 86 8 -2 -7 -82 -481 -178
-1053 -95 -572 -174 -1042 -176 -1044 -1 -2 -21 4 -42 14 l-40 17 24 37 c31
47 39 81 30 137 -8 59 -71 127 -131 143 -23 6 -44 18 -48 26 -6 17 -2 20 38
29 102 25 157 157 106 255 -88 174 -345 107 -343 -89 l1 -58 -44 -17 c-52 -20
-101 -72 -109 -118 l-6 -33 -79 1 c-64 0 -83 -4 -107 -21 -24 -18 -64 -67 -75
-92 -2 -4 -27 -6 -55 -4 -46 3 -53 7 -53 25 0 40 -42 108 -82 135 -32 21 -53
26 -99 27 -33 0 -59 3 -59 7 0 14 -63 79 -91 94 -15 7 -51 14 -80 14 -71 0
-128 -34 -160 -94 -21 -40 -28 -46 -57 -46 -38 0 -98 -23 -125 -48 -75 -68
-75 -193 0 -274 l26 -27 -47 -22 c-26 -12 -48 -20 -50 -18 -2 2 -31 168 -65
369 -108 643 -291 1738 -291 1744 0 3 12 1 26 -4 14 -6 69 -21 122 -34z m1750
-1383 c-10 -2 -26 -2 -35 0 -10 3 -2 5 17 5 19 0 27 -2 18 -5z m96 -49 c3 -8
2 -12 -4 -9 -6 3 -10 10 -10 16 0 14 7 11 14 -7z m-189 -134 c3 -5 1 -10 -4
-10 -6 0 -11 5 -11 10 0 6 2 10 4 10 3 0 8 -4 11 -10z m183 -10 c-7 -10 -14
-17 -17 -15 -4 4 18 35 25 35 2 0 -1 -9 -8 -20z m-58 -36 c0 -2 -7 -4 -15 -4
-8 0 -15 4 -15 10 0 5 7 7 15 4 8 -4 15 -8 15 -10z m-177 -21 c-7 -2 -19 -2
-25 0 -7 3 -2 5 12 5 14 0 19 -2 13 -5z m-863 -47 c0 -3 -4 -8 -10 -11 -5 -3
-10 -1 -10 4 0 6 5 11 10 11 6 0 10 -2 10 -4z m957 -38 c-3 -8 -6 -5 -6 6 -1
11 2 17 5 13 3 -3 4 -12 1 -19z m-1005 -10 c-7 -7 -12 -8 -12 -2 0 6 3 14 7
17 3 4 9 5 12 2 2 -3 -1 -11 -7 -17z m-147 -8 c10 -11 16 -20 13 -20 -3 0 -13
9 -23 20 -10 11 -16 20 -13 20 3 0 13 -9 23 -20z m222 -23 c-12 -13 -24 -22
-26 -20 -6 4 30 43 40 43 5 0 -2 -10 -14 -23z m-97 -12 c0 -8 -4 -15 -10 -15
-5 0 -7 7 -4 15 4 8 8 15 10 15 2 0 4 -7 4 -15z m1097 -11 c-3 -3 -12 -4 -19
-1 -8 3 -5 6 6 6 11 1 17 -2 13 -5z m-1110 -46 c-3 -7 -5 -2 -5 12 0 14 2 19
5 13 2 -7 2 -19 0 -25z m723 22 c0 -5 -2 -10 -4 -10 -3 0 -8 5 -11 10 -3 6 -1
10 4 10 6 0 11 -4 11 -10z m-140 -4 c0 -2 -8 -10 -17 -17 -16 -13 -17 -12 -4
4 13 16 21 21 21 13z m150 -46 c-8 -5 -19 -10 -25 -10 -5 0 -3 5 5 10 8 5 20
10 25 10 6 0 3 -5 -5 -10z m257 -12 c-3 -8 -6 -5 -6 6 -1 11 2 17 5 13 3 -3 4
-12 1 -19z m-431 -19 c19 -22 19 -22 -3 -8 -13 8 -23 17 -23 21 0 12 6 9 26
-13z m134 7 c0 -2 -8 -10 -17 -17 -16 -13 -17 -12 -4 4 13 16 21 21 21 13z
m-770 -56 c-24 -15 -36 -11 -14 4 10 8 21 12 24 10 2 -3 -2 -9 -10 -14z m955
11 c3 -5 2 -12 -3 -15 -5 -3 -9 1 -9 9 0 17 3 19 12 6z m-1216 -35 c-3 -3 -11
5 -18 17 -13 21 -12 21 5 5 10 -10 16 -20 13 -22z m144 -6 c-3 -12 -8 -19 -11
-16 -5 6 5 36 12 36 2 0 2 -9 -1 -20z m381 12 c3 -5 -1 -9 -9 -9 -8 0 -12 4
-9 9 3 4 7 8 9 8 2 0 6 -4 9 -8z m827 -29 c13 -16 12 -17 -3 -4 -17 13 -22 21
-14 21 2 0 10 -8 17 -17z m-1141 -33 c-5 -22 -8 -27 -9 -13 -1 21 9 56 14 51
2 -2 0 -19 -5 -38z m-133 24 c-3 -3 -12 -4 -19 -1 -8 3 -5 6 6 6 11 1 17 -2
13 -5z m883 -4 c0 -5 -4 -10 -10 -10 -5 0 -10 5 -10 10 0 6 5 10 10 10 6 0 10
-4 10 -10z m550 -4 c0 -2 -7 -7 -16 -10 -8 -3 -12 -2 -9 4 6 10 25 14 25 6z
m-106 -15 c4 -5 -3 -7 -14 -4 -23 6 -26 13 -6 13 8 0 17 -4 20 -9z m-826 -58
c24 -89 121 -153 207 -137 48 9 95 42 124 87 31 47 54 47 85 -1 28 -45 57 -65
114 -83 79 -23 169 21 206 101 21 46 22 46 51 34 17 -7 56 -13 88 -14 41 0 72
-7 105 -24 89 -45 90 -71 4 -107 -223 -96 -783 -135 -1212 -84 -262 30 -450
89 -450 141 0 17 54 49 125 72 111 36 112 36 125 -2 15 -46 78 -102 130 -116
97 -26 196 35 221 136 10 38 15 44 38 44 23 0 28 -6 39 -47z m682 -3 c0 -5 -2
-10 -4 -10 -3 0 -8 5 -11 10 -3 6 -1 10 4 10 6 0 11 -4 11 -10z m-1026 -12
c-3 -5 2 -19 13 -31 17 -20 17 -21 0 -8 -27 21 -39 48 -22 48 8 0 12 -4 9 -9z
m626 -12 c0 -2 -8 -10 -17 -17 -16 -13 -17 -12 -4 4 13 16 21 21 21 13z m-470
-31 c-7 -8 -17 -15 -23 -15 -6 0 -2 7 9 15 25 19 30 19 14 0z m706 -1 c18 -14
18 -14 -6 -3 -31 14 -36 19 -24 19 6 0 19 -7 30 -16z m124 2 c0 -2 -7 -7 -16
-10 -8 -3 -12 -2 -9 4 6 10 25 14 25 6z"/>
<path d="M2053 4163 c9 -2 23 -2 30 0 6 3 -1 5 -18 5 -16 0 -22 -2 -12 -5z"/>
<path d="M1340 3042 c-19 -10 -48 -38 -65 -61 -26 -37 -30 -51 -30 -111 0 -60
4 -74 30 -111 42 -58 87 -81 152 -76 95 7 158 81 158 187 0 106 -63 180 -158
187 -38 3 -61 -1 -87 -15z m159 -48 c33 -42 22 -100 -25 -124 -51 -28 -114 32
-98 94 14 57 87 75 123 30z m-128 -164 c23 -13 25 -43 3 -64 -21 -22 -31 -20
-50 9 -16 24 -16 27 1 45 21 23 20 23 46 10z"/>
<path d="M2694 3041 c-94 -58 -121 -188 -59 -283 29 -43 91 -77 139 -78 78 0
155 72 171 161 13 73 -33 172 -95 204 -41 21 -118 19 -156 -4z m165 -57 c12
-15 21 -36 21 -48 0 -26 -24 -62 -51 -77 -42 -22 -99 25 -99 80 0 34 39 71 75
71 24 0 39 -7 54 -26z m-121 -156 c32 -32 -3 -88 -41 -67 -30 17 -16 79 18 79
6 0 16 -5 23 -12z"/>
<path d="M1965 2827 c-9 -33 18 -83 55 -102 37 -19 100 -19 146 0 58 24 85
125 33 125 -14 0 -19 -7 -19 -29 0 -40 -32 -61 -91 -61 -51 0 -75 18 -81 60
-4 34 -35 39 -43 7z"/>
<path d="M1358 2380 c-51 -15 -94 -49 -117 -90 -19 -34 -22 -53 -19 -100 13
-186 257 -234 344 -68 20 39 18 126 -5 168 -36 68 -134 112 -203 90z m-37
-267 c13 -16 12 -17 -3 -4 -17 13 -22 21 -14 21 2 0 10 -8 17 -17z m134 -13
c3 -5 1 -10 -4 -10 -6 0 -11 5 -11 10 0 6 2 10 4 10 3 0 8 -4 11 -10z"/>
<path d="M1992 2249 c-106 -53 -132 -188 -54 -281 27 -32 93 -67 127 -68 40 0
96 22 130 51 96 85 77 242 -37 298 -56 27 -111 27 -166 0z m106 -46 c-10 -2
-26 -2 -35 0 -10 3 -2 5 17 5 19 0 27 -2 18 -5z m80 -58 c-3 -3 -9 2 -12 12
-6 14 -5 15 5 6 7 -7 10 -15 7 -18z m16 -31 c3 -8 2 -12 -4 -9 -6 3 -10 10
-10 16 0 14 7 11 14 -7z m-20 -104 c-6 -6 -10 -3 -10 10 0 13 4 16 10 10 7 -7
7 -13 0 -20z m-173 -17 c13 -16 12 -17 -3 -4 -10 7 -18 15 -18 17 0 8 8 3 21
-13z"/>
<path d="M959 504 c-24 -30 -13 -80 40 -171 59 -102 63 -129 24 -139 -46 -12
-93 39 -72 79 9 16 7 18 -13 15 -18 -2 -24 -10 -26 -38 -5 -51 23 -98 67 -110
58 -16 81 -12 112 19 51 52 42 89 -55 221 -48 66 -55 90 -31 110 18 15 33 6
46 -27 10 -26 29 -23 29 6 0 44 -91 71 -121 35z"/>
<path d="M1100 513 c0 -5 13 -42 29 -83 15 -41 41 -122 57 -179 23 -85 33
-105 52 -114 45 -21 71 36 117 251 20 97 21 104 4 112 -25 14 -34 -4 -48 -104
-14 -106 -32 -186 -41 -186 -3 0 -19 48 -34 107 -15 60 -37 128 -49 153 -19
38 -27 45 -54 48 -18 2 -33 0 -33 -5z"/>
<path d="M1464 501 c-47 -29 -69 -95 -69 -206 0 -78 3 -94 23 -122 14 -20 38
-37 60 -44 72 -21 112 16 132 123 6 29 16 56 23 60 6 4 -13 7 -43 7 -30 0 -49
-3 -42 -6 25 -10 11 -163 -15 -163 -42 0 -80 203 -53 284 15 47 45 64 71 40
10 -9 19 -23 19 -31 0 -8 5 -11 10 -8 16 10 12 40 -8 58 -30 27 -73 30 -108 8z"/>
<path d="M2394 513 l-70 -4 -13 -102 c-15 -128 -16 -229 -2 -256 19 -34 46
-43 83 -28 40 17 98 80 98 107 0 27 -2 26 -44 -16 -54 -54 -70 -45 -74 44 l-3
72 34 0 c21 0 37 6 40 15 8 20 -8 28 -43 20 l-30 -7 0 56 0 55 58 3 c50 3 57
6 60 26 2 14 -1 21 -10 20 -7 -1 -45 -4 -84 -5z"/>
<path d="M2542 508 c-8 -8 -12 -64 -12 -184 0 -141 3 -174 15 -184 11 -9 22
-10 37 -3 21 9 22 16 19 89 -2 77 -2 80 23 93 33 18 74 77 82 119 13 65 -42
103 -95 66 -22 -16 -24 -16 -33 0 -11 19 -20 20 -36 4z m96 -65 c3 -35 -21
-103 -37 -103 -12 0 -15 122 -4 134 16 16 38 -1 41 -31z"/>
<path d="M2754 495 c-21 -33 -13 -65 41 -160 54 -94 60 -112 45 -130 -32 -38
-108 12 -96 61 8 30 -8 39 -29 18 -12 -13 -15 -26 -10 -53 10 -53 23 -71 60
-87 50 -21 90 -17 122 10 23 20 28 32 28 68 0 38 -8 55 -54 119 -66 90 -80
121 -62 143 16 19 51 5 51 -20 0 -9 6 -14 13 -11 6 2 11 13 9 23 -8 48 -90 62
-118 19z"/>
<path d="M3595 511 c-3 -6 -1 -87 4 -180 6 -93 8 -177 5 -186 -6 -13 -1 -16
22 -13 27 3 29 7 37 63 5 33 6 106 3 162 -6 103 -2 118 28 107 29 -11 46 -60
46 -129 0 -74 -18 -128 -49 -145 -25 -13 -29 -67 -5 -77 58 -22 153 207 127
306 -15 59 -78 89 -140 68 -18 -6 -23 -5 -23 7 0 9 -4 16 -9 16 -5 0 -16 3
-24 6 -8 3 -18 1 -22 -5z"/>
<path d="M4024 512 c-7 -4 -23 -34 -37 -66 l-25 -60 -31 62 c-24 48 -36 62
-54 62 -51 -1 -50 -13 2 -100 56 -94 57 -84 -15 -198 -19 -29 -34 -55 -34 -57
0 -3 11 -5 24 -5 20 0 31 12 57 60 17 33 35 60 38 60 4 0 22 -26 40 -57 44
-75 60 -93 83 -93 24 0 23 13 -6 63 -13 23 -37 68 -54 100 l-29 58 43 82 c23
45 40 85 38 89 -6 10 -25 10 -40 0z"/>
<path d="M4142 502 c-2 -8 -2 -46 1 -86 4 -46 3 -76 -4 -83 -8 -8 -8 -13 0
-17 13 -9 14 -89 2 -133 -11 -37 4 -56 41 -51 22 3 23 7 23 93 l0 90 33 -2
c21 -1 32 3 29 10 -2 7 -18 11 -35 9 -30 -3 -30 -3 -37 55 -4 32 -7 65 -8 73
-2 11 11 14 58 15 54 0 60 2 63 22 3 21 0 22 -79 20 -57 -1 -83 -6 -87 -15z"/>
<path d="M4982 508 c-8 -8 -12 -64 -12 -184 0 -141 3 -174 15 -184 11 -9 22
-10 37 -3 19 8 21 16 19 67 -1 32 -4 66 -6 76 -2 12 8 26 29 41 48 32 81 85
81 129 0 65 -43 89 -94 54 -22 -16 -24 -16 -33 0 -11 19 -20 20 -36 4z m92
-76 c-1 -41 -20 -92 -35 -92 -11 0 -15 120 -4 131 22 22 40 4 39 -39z"/>
<path d="M5514 501 c-47 -29 -69 -95 -69 -208 0 -105 16 -139 76 -160 74 -24
122 14 134 107 3 25 10 53 16 63 8 15 4 17 -38 17 -31 0 -43 -3 -34 -9 17 -11
11 -135 -7 -153 -53 -53 -101 220 -52 300 25 40 45 41 69 1 11 -18 21 -26 26
-20 11 19 -5 51 -35 66 -38 19 -49 19 -86 -4z"/>
<path d="M6515 514 c-11 -2 -46 -6 -77 -9 -60 -7 -81 -25 -29 -25 28 0 30 -3
37 -47 12 -83 10 -256 -3 -260 -12 -4 -31 49 -35 102 -3 26 -7 30 -33 30 -29
0 -30 -2 -33 -52 -4 -71 17 -109 68 -124 33 -10 43 -9 64 5 38 24 49 82 43
224 l-5 122 34 0 c27 0 34 4 34 20 0 20 -11 22 -65 14z"/>
<path d="M6624 508 c-13 -21 -17 -334 -4 -357 12 -23 44 -28 56 -9 5 7 7 47 5
88 -2 74 -2 76 25 90 34 19 84 95 84 130 0 60 -51 87 -99 54 -22 -16 -24 -16
-33 0 -11 19 -24 21 -34 4z m94 -70 c3 -37 -21 -98 -38 -98 -11 0 -14 123 -3
134 17 17 38 -1 41 -36z"/>
<path d="M6890 507 c-93 -47 -119 -276 -40 -352 35 -34 97 -40 129 -11 21 19
51 95 51 131 0 11 5 26 12 33 9 9 0 12 -42 12 -48 0 -52 -2 -35 -14 15 -11 17
-21 12 -69 -8 -67 -15 -87 -31 -87 -33 0 -74 163 -62 243 13 87 73 123 97 59
7 -19 13 -22 21 -14 15 15 -15 60 -48 72 -32 12 -34 12 -64 -3z"/>
<path d="M5283 486 c-10 -13 -23 -32 -30 -42 -11 -18 -12 -18 -12 2 -1 25 -31
54 -55 54 -14 0 -16 -4 -10 -17 4 -10 9 -87 10 -172 1 -151 5 -170 37 -171 17
0 27 56 27 152 0 84 3 106 20 133 20 33 46 51 53 37 2 -4 1 -38 -4 -77 -4 -38
-8 -105 -8 -147 -1 -71 1 -78 25 -97 32 -25 34 -25 60 -7 15 12 17 17 7 27 -9
9 -13 54 -13 151 0 162 -11 198 -60 198 -18 0 -35 -8 -47 -24z"/>
<path d="M1898 379 c-31 -17 -21 -57 23 -97 l41 -38 40 36 c32 30 39 43 36 66
-2 21 -9 30 -26 32 -13 2 -29 -2 -37 -8 -10 -9 -19 -8 -37 4 -16 10 -28 12
-40 5z"/>
<path d="M3212 374 c-32 -22 -27 -41 22 -89 l43 -43 42 40 c43 43 50 67 26 91
-15 15 -50 12 -61 -4 -3 -5 -15 -2 -28 6 -19 13 -25 13 -44 -1z"/>
<path d="M4623 375 c-14 -10 -24 -12 -28 -5 -9 14 -48 13 -63 -2 -21 -21 -14
-39 32 -84 l44 -43 41 44 c45 48 49 65 25 89 -19 20 -24 20 -51 1z"/>
<path d="M6030 382 c-8 -3 -18 -10 -22 -15 -4 -7 -12 -7 -22 2 -26 22 -61 10
-64 -22 -3 -22 5 -36 38 -66 l42 -38 39 38 c25 24 39 47 39 63 0 27 -26 47
-50 38z"/>
</g>
</svg>
